<?xml version="1.0" encoding="UTF-8" standalone="no"?><svg xmlns="http://www.w3.org/2000/svg" xmlns:xlink="http://www.w3.org/1999/xlink" contentScriptType="application/ecmascript" contentStyleType="text/css" height="649px" preserveAspectRatio="none" style="width:618px;height:649px;" version="1.1" viewBox="0 0 618 649" width="618px" zoomAndPan="magnify"><defs><filter height="300%" id="fhxs018wxdu6k" width="300%" x="-1" y="-1"><feGaussianBlur result="blurOut" stdDeviation="2.0"/><feColorMatrix in="blurOut" result="blurOut2" type="matrix" values="0 0 0 0 0 0 0 0 0 0 0 0 0 0 0 0 0 0 .4 0"/><feOffset dx="4.0" dy="4.0" in="blurOut2" result="blurOut3"/><feBlend in="SourceGraphic" in2="blurOut3" mode="normal"/></filter></defs><g><!--MD5=[c9bc0bd209fa76f4781d211ece10fa6b]
cluster IvyLee: Main--><path d="M272.2261,33.8801 C275.6782,27.7518 281.7233,25.9509 285.8728,33.1668 C289.9046,24.8927 298.408,25.6454 302.8522,32.7104 C307.4865,25.2879 313.6105,25.9648 318.2616,32.692 C322.6915,25.3424 328.4581,25.4013 333.5141,32.0078 C337.4609,23.1996 345.9613,23.231 351.1308,30.683 C355.3096,22.4551 363.033,22.4071 367.7188,30.1565 C372.0437,23.1498 376.9043,23.2023 382.1671,29.107 C388.8736,21.6459 394.8402,22.6805 398.6551,31.9557 C403.4629,24.0016 408.4486,24.1662 413.7878,31.4271 C418.8386,23.0698 425.309,23.7304 430.7915,30.956 C436.2524,25.0809 440.8453,26.4574 444.4249,33.0185 C453.6898,24.8514 463.4554,25.5778 467,39 C468.4208,38.1821 469.0775,38.7766 469.4089,40.1809 C477.8465,44.058 477.5863,51.4474 469.6492,55.5799 C477.2283,60.0998 479.9731,68.0817 470.4345,73.3577 C477.4659,77.7768 476.7215,84.081 470.241,88.3254 C477.3612,93.3612 476.7802,101.2956 469.5725,105.7827 C477.8104,110.7453 477.7374,118.5522 468.572,122.4714 C475.4687,132.3327 473.983,142.4523 460,144 C460.4015,143.6099 460.8476,143.6663 461.0304,144.235 C456.7083,151.7495 451.0903,152.786 444.6952,146.7303 C440.6989,153.9432 435.8986,155.1816 430.4838,148.145 C425.165,155.6802 419.8659,157.6851 413.1282,149.7354 C409.3223,157.4719 403.0348,157.3751 398.8586,150.087 C394.8807,158.3318 388.3101,160.3028 381.6146,153.1256 C376.5163,160.2771 370.4742,161.2388 365.4984,152.9973 C360.8932,161.733 354.5184,161.8826 349.2888,153.5917 C344.2635,160.5481 338.1838,159.2837 334.0984,152.5489 C329.4602,158.8606 322.6124,158.266 319.2287,151.1587 C312.5716,157.0142 307.1766,156.885 303.707,147.8387 C299.4945,154.867 291.2482,156.2214 286.7059,148.2115 C274.1491,153.9729 265.6766,152.1294 263,137 C264.3834,137.6451 264.7638,138.4136 263.6989,139.6938 C256.5755,134.1766 256.4043,128.1015 263.5187,122.4356 C256.7295,119.0247 254.9324,111.4644 262.0185,106.7282 C252.8306,103.693 251.0217,96.2999 258.0249,89.5094 C251.1633,82.6804 252.8281,76.5217 261.4347,72.8607 C254.5055,67.0305 254.1983,60.4887 263.5925,56.8596 C252.7867,46.523 257.2759,36.2719 270,32 C271.6391,31.61 272.3986,32.1252 272.2261,33.8801 " fill="#FFFFFF" style="stroke: #000000; stroke-width: 1.5;"/><text fill="#000000" font-family="sans-serif" font-size="14" font-weight="bold" lengthAdjust="spacingAndGlyphs" textLength="88" x="321" y="51.5332">IvyLee: Main</text><!--MD5=[a008808372d8c02ae91a3cbe41765227]
cluster IvyLee: ExtensionAPI--><polygon fill="#FFFFFF" filter="url(#fhxs018wxdu6k)" points="22,212,32,202,536,202,536,627,526,637,22,637,22,212" style="stroke: #000000; stroke-width: 1.5;"/><line style="stroke: #000000; stroke-width: 1.5;" x1="526" x2="535" y1="212" y2="203"/><line style="stroke: #000000; stroke-width: 1.5;" x1="22" x2="526" y1="212" y2="212"/><line style="stroke: #000000; stroke-width: 1.5;" x1="526" x2="526" y1="212" y2="637"/><text fill="#000000" font-family="sans-serif" font-size="14" font-weight="bold" lengthAdjust="spacingAndGlyphs" textLength="146" x="202" y="229.5332">IvyLee: ExtensionAPI</text><!--MD5=[b12afbf026500f01f4ad096dd4785fa0]
class TaskDialog--><rect fill="#FEFECE" filter="url(#fhxs018wxdu6k)" height="75.6719" id="TaskDialog" style="stroke: #A80036; stroke-width: 1.5;" width="188" x="271" y="60"/><ellipse cx="329.25" cy="76" fill="#ADD1B2" rx="11" ry="11" style="stroke: #A80036; stroke-width: 1.0;"/><path d="M331.25,72.5 Q331.4531,72 331.6875,71.75 Q331.9219,71.5 332.1875,71.5 Q332.6563,71.5 332.9531,71.7813 Q333.25,72.0625 333.25,72.7188 L333.25,74.2813 Q333.25,74.9375 332.9688,75.2188 Q332.6875,75.5 332.25,75.5 Q331.8594,75.5 331.6094,75.3281 Q331.3594,75.1563 331.25,74.7031 Q331.2031,74.3906 331.0313,74.2188 Q330.7188,73.8906 330.1563,73.7031 Q329.5938,73.5 329.0313,73.5 Q328.3281,73.5 327.7344,73.7813 Q327.1563,74.0625 326.7031,74.6875 Q326.25,75.3125 326.25,76.1719 L326.25,77.0938 Q326.25,78.125 327.0938,78.8125 Q327.9375,79.5 329.4375,79.5 Q330.3281,79.5 330.9531,79.2969 Q331.3125,79.1875 331.7188,78.8281 Q331.9844,78.625 332.125,78.5625 Q332.2656,78.5 332.4375,78.5 Q332.7656,78.5 333,78.7656 Q333.25,79.0156 333.25,79.375 Q333.25,79.7188 332.9063,80.125 Q332.4063,80.7188 331.6094,81.0469 Q330.5625,81.5 329.2813,81.5 Q327.7813,81.5 326.5781,80.9063 Q325.6094,80.4375 324.9219,79.4219 Q324.25,78.4063 324.25,77.2031 L324.25,76.1094 Q324.25,74.8594 324.8438,73.7656 Q325.4531,72.6719 326.5,72.0938 Q327.5625,71.5 328.75,71.5 Q329.4688,71.5 330.0938,71.75 Q330.7188,72 331.25,72.5 Z "/><text fill="#000000" font-family="sans-serif" font-size="12" lengthAdjust="spacingAndGlyphs" textLength="63" x="349.75" y="80.9102">TaskDialog</text><line style="stroke: #A80036; stroke-width: 1.5;" x1="272" x2="458" y1="92" y2="92"/><rect fill="none" height="6" style="stroke: #C82930; stroke-width: 1.0;" width="6" x="279" y="100"/><text fill="#000000" font-family="sans-serif" font-size="11" lengthAdjust="spacingAndGlyphs" textLength="116" x="291" y="107.4189">tasks: List&lt;IvyLeeTask&gt;</text><line style="stroke: #A80036; stroke-width: 1.0;" x1="272" x2="458" y1="113.8359" y2="113.8359"/><polygon fill="#FFFF44" points="282,119.8359,286,123.8359,282,127.8359,278,123.8359" style="stroke: #B38D22; stroke-width: 1.0;"/><text fill="#000000" font-family="sans-serif" font-size="11" lengthAdjust="spacingAndGlyphs" textLength="162" x="291" y="129.2549">execute(extensionId: String): void</text><!--MD5=[b2aea1118518b698ec374f389bc4ef24]
class Extension--><rect fill="#FEFECE" filter="url(#fhxs018wxdu6k)" height="61.8359" id="Extension" style="stroke: #A80036; stroke-width: 1.5;" width="121" x="381.5" y="559"/><ellipse cx="412.25" cy="575" fill="#E3664A" rx="11" ry="11" style="stroke: #A80036; stroke-width: 1.0;"/><path d="M413.75,572 L413.75,571.5469 Q413.75,570.8438 413.2813,570.4219 Q412.8125,570 412.0938,570 Q411.5,570 410.9844,570.4063 Q410.4688,570.7969 410.2188,571.4219 Q409.75,572.5313 409.75,573.6406 L409.75,576.1875 Q409.75,578.125 410.5781,579.25 Q411.1094,580 412.0781,580 Q412.5938,580 413.0313,579.8281 Q413.4688,579.6406 413.7031,579.3281 Q413.9375,579 414.1406,579 Q414.4063,579 414.5781,579.1875 Q414.75,579.375 414.75,579.6406 Q414.75,580.0469 414.2188,580.4375 Q413.4531,581 412.125,581 Q411.1094,581 410.4531,580.5156 Q409.5938,579.8906 409.1719,578.6719 Q408.75,577.4531 408.75,576.25 L408.75,573.6094 Q408.75,571.6875 409.6406,570.3438 Q410.5469,569 412.0469,569 Q412.7188,569 413.3125,569.2813 Q413.9063,569.5625 414.3281,570.2656 Q414.75,570.9688 414.75,571.8281 L414.75,576 Q414.75,576.1406 414.75,576.4531 Q414.75,576.7031 414.625,576.8594 Q414.5,577 414.2188,577 L413.75,577 L413.75,576.9531 Q413.3594,577 413.1875,577 Q412.2031,577 411.4688,576.2969 Q410.75,575.5938 410.75,574.6406 Q410.75,573.625 411.5469,572.8594 Q412.3594,572.0938 413.75,572 Z M413.75,573 Q412.7813,573.0938 412.2656,573.3906 Q411.75,573.6875 411.75,574.6719 Q411.75,575.2188 412.1719,575.6094 Q412.6094,576 413.2969,576 Q413.4375,576 413.75,575.9688 L413.75,573 Z "/><text fill="#000000" font-family="sans-serif" font-size="12" lengthAdjust="spacingAndGlyphs" textLength="54" x="429.75" y="579.9102">Extension</text><line style="stroke: #A80036; stroke-width: 1.5;" x1="382.5" x2="501.5" y1="591" y2="591"/><polygon fill="none" points="392.5,598,388.5,604,396.5,604" style="stroke: #1963A0; stroke-width: 1.0;"/><text fill="#000000" font-family="sans-serif" font-size="11" lengthAdjust="spacingAndGlyphs" textLength="95" x="401.5" y="606.4189">displayName: String</text><line style="stroke: #A80036; stroke-width: 1.0;" x1="382.5" x2="501.5" y1="612.8359" y2="612.8359"/><!--MD5=[b004e133133e870caa6314ae3e3cc580]
class CustomExtension--><rect fill="#FEFECE" filter="url(#fhxs018wxdu6k)" height="97.5078" id="CustomExtension" style="stroke: #A80036; stroke-width: 1.5;" width="154" x="365" y="383"/><ellipse cx="390.8" cy="399" fill="#ADD1B2" rx="11" ry="11" style="stroke: #A80036; stroke-width: 1.0;"/><path d="M392.8,395.5 Q393.0031,395 393.2375,394.75 Q393.4719,394.5 393.7375,394.5 Q394.2063,394.5 394.5031,394.7813 Q394.8,395.0625 394.8,395.7188 L394.8,397.2813 Q394.8,397.9375 394.5188,398.2188 Q394.2375,398.5 393.8,398.5 Q393.4094,398.5 393.1594,398.3281 Q392.9094,398.1563 392.8,397.7031 Q392.7531,397.3906 392.5813,397.2188 Q392.2688,396.8906 391.7063,396.7031 Q391.1438,396.5 390.5813,396.5 Q389.8781,396.5 389.2844,396.7813 Q388.7063,397.0625 388.2531,397.6875 Q387.8,398.3125 387.8,399.1719 L387.8,400.0938 Q387.8,401.125 388.6438,401.8125 Q389.4875,402.5 390.9875,402.5 Q391.8781,402.5 392.5031,402.2969 Q392.8625,402.1875 393.2688,401.8281 Q393.5344,401.625 393.675,401.5625 Q393.8156,401.5 393.9875,401.5 Q394.3156,401.5 394.55,401.7656 Q394.8,402.0156 394.8,402.375 Q394.8,402.7188 394.4563,403.125 Q393.9563,403.7188 393.1594,404.0469 Q392.1125,404.5 390.8313,404.5 Q389.3313,404.5 388.1281,403.9063 Q387.1594,403.4375 386.4719,402.4219 Q385.8,401.4063 385.8,400.2031 L385.8,399.1094 Q385.8,397.8594 386.3938,396.7656 Q387.0031,395.6719 388.05,395.0938 Q389.1125,394.5 390.3,394.5 Q391.0188,394.5 391.6438,394.75 Q392.2688,395 392.8,395.5 Z "/><text fill="#000000" font-family="sans-serif" font-size="12" lengthAdjust="spacingAndGlyphs" textLength="98" x="407.2" y="403.9102">CustomExtension</text><line style="stroke: #A80036; stroke-width: 1.5;" x1="366" x2="518" y1="415" y2="415"/><text fill="#000000" font-family="sans-serif" font-size="11" lengthAdjust="spacingAndGlyphs" textLength="64" x="371" y="430.4189">custom fields</text><line style="stroke: #A80036; stroke-width: 1.0;" x1="366" x2="518" y1="436.8359" y2="436.8359"/><text fill="#000000" font-family="sans-serif" font-size="11" lengthAdjust="spacingAndGlyphs" textLength="79" x="371" y="452.2549">custom methods</text><line style="stroke: #A80036; stroke-width: 1.0;" x1="366" x2="518" y1="458.6719" y2="458.6719"/><line style="stroke: #A80036; stroke-width: 1.0;" x1="366" x2="518" y1="460.6719" y2="460.6719"/><ellipse cx="376" cy="469.6719" fill="#84BE84" rx="3" ry="3" style="stroke: #038048; stroke-width: 1.0;"/><text fill="#000000" font-family="sans-serif" font-size="11" lengthAdjust="spacingAndGlyphs" textLength="128" x="385" y="474.0908">execute(IvyLeeTask): void</text><!--MD5=[faa49435fa93234aa04eac98da65b5b4]
class TaskExtension--><rect fill="#FEFECE" filter="url(#fhxs018wxdu6k)" height="61.8359" id="TaskExtension" style="stroke: #A80036; stroke-width: 1.5;" width="155" x="364.5" y="243"/><ellipse cx="398.4" cy="259" fill="#B4A7E5" rx="11" ry="11" style="stroke: #A80036; stroke-width: 1.0;"/><path d="M399.4,256 L399.4,262 L401.4,262 L401.8844,262 L402.4,262.625 L402.4,263 L402.4,263.375 L401.8844,264 L401.4,264 L395.4,264 L394.9156,264 L394.4,263.375 L394.4,263 L394.4,262.625 L394.9156,262 L395.4,262 L397.4,262 L397.4,256 L395.4,256 L394.9156,256 L394.4,255.375 L394.4,255 L394.4,254.625 L394.9156,254 L395.4,254 L401.4,254 L401.8844,254 L402.4,254.625 L402.4,255 L402.4,255.375 L401.8844,256 L401.4,256 L399.4,256 Z "/><text fill="#000000" font-family="sans-serif" font-size="12" font-style="italic" lengthAdjust="spacingAndGlyphs" textLength="81" x="416.6" y="263.9102">TaskExtension</text><line style="stroke: #A80036; stroke-width: 1.5;" x1="365.5" x2="518.5" y1="275" y2="275"/><line style="stroke: #A80036; stroke-width: 1.0;" x1="365.5" x2="518.5" y1="283" y2="283"/><ellipse cx="375.5" cy="294" fill="#84BE84" rx="3" ry="3" style="stroke: #038048; stroke-width: 1.0;"/><text fill="#000000" font-family="sans-serif" font-size="11" font-style="italic" lengthAdjust="spacingAndGlyphs" textLength="129" x="384.5" y="298.4189">execute(IvyLeeTask): void</text><!--MD5=[b9515c53f92dbbe79e7016f5139b49f5]
class ExtensionCrawler--><rect fill="#FEFECE" filter="url(#fhxs018wxdu6k)" height="61.8359" id="ExtensionCrawler" style="stroke: #A80036; stroke-width: 1.5;" width="291" x="38.5" y="243"/><ellipse cx="131.25" cy="259" fill="#ADD1B2" rx="11" ry="11" style="stroke: #A80036; stroke-width: 1.0;"/><path d="M133.25,255.5 Q133.4531,255 133.6875,254.75 Q133.9219,254.5 134.1875,254.5 Q134.6563,254.5 134.9531,254.7813 Q135.25,255.0625 135.25,255.7188 L135.25,257.2813 Q135.25,257.9375 134.9688,258.2188 Q134.6875,258.5 134.25,258.5 Q133.8594,258.5 133.6094,258.3281 Q133.3594,258.1563 133.25,257.7031 Q133.2031,257.3906 133.0313,257.2188 Q132.7188,256.8906 132.1563,256.7031 Q131.5938,256.5 131.0313,256.5 Q130.3281,256.5 129.7344,256.7813 Q129.1563,257.0625 128.7031,257.6875 Q128.25,258.3125 128.25,259.1719 L128.25,260.0938 Q128.25,261.125 129.0938,261.8125 Q129.9375,262.5 131.4375,262.5 Q132.3281,262.5 132.9531,262.2969 Q133.3125,262.1875 133.7188,261.8281 Q133.9844,261.625 134.125,261.5625 Q134.2656,261.5 134.4375,261.5 Q134.7656,261.5 135,261.7656 Q135.25,262.0156 135.25,262.375 Q135.25,262.7188 134.9063,263.125 Q134.4063,263.7188 133.6094,264.0469 Q132.5625,264.5 131.2813,264.5 Q129.7813,264.5 128.5781,263.9063 Q127.6094,263.4375 126.9219,262.4219 Q126.25,261.4063 126.25,260.2031 L126.25,259.1094 Q126.25,257.8594 126.8438,256.7656 Q127.4531,255.6719 128.5,255.0938 Q129.5625,254.5 130.75,254.5 Q131.4688,254.5 132.0938,254.75 Q132.7188,255 133.25,255.5 Z "/><text fill="#000000" font-family="sans-serif" font-size="12" lengthAdjust="spacingAndGlyphs" textLength="97" x="151.75" y="263.9102">ExtensionCrawler</text><line style="stroke: #A80036; stroke-width: 1.5;" x1="39.5" x2="328.5" y1="275" y2="275"/><line style="stroke: #A80036; stroke-width: 1.0;" x1="39.5" x2="328.5" y1="283" y2="283"/><ellipse cx="49.5" cy="294" fill="#84BE84" rx="3" ry="3" style="stroke: #038048; stroke-width: 1.0;"/><text fill="#000000" font-family="sans-serif" font-size="11" lengthAdjust="spacingAndGlyphs" textLength="265" x="58.5" y="298.4189">searchExtensions(): List&lt;? implements TaskExtension&gt;</text><!--MD5=[ae8839b41f4c1231e23530b06883217d]
reverse link TaskExtension to CustomExtension--><path d="M442,325.362 C442,343.822 442,364.653 442,382.909 " fill="none" id="TaskExtension&lt;-CustomExtension" style="stroke: #A80036; stroke-width: 1.0; stroke-dasharray: 7.0,7.0;"/><polygon fill="none" points="435,325.078,442,305.078,449,325.078,435,325.078" style="stroke: #A80036; stroke-width: 1.0;"/><!--MD5=[2ce31c852288784b6339a10df03ef211]
link ExtensionCrawler to CustomExtension--><path d="M233.745,305.078 C269.63,326.777 318.876,356.553 360.469,381.702 " fill="none" id="ExtensionCrawler-&gt;CustomExtension" style="stroke: #A80036; stroke-width: 1.0;"/><polygon fill="#A80036" points="364.985,384.433,359.3532,376.3532,360.7064,381.8458,355.2138,383.199,364.985,384.433" style="stroke: #A80036; stroke-width: 1.0;"/><text fill="#000000" font-family="sans-serif" font-size="13" lengthAdjust="spacingAndGlyphs" textLength="27" x="314" y="349.4951">finds</text><!--MD5=[c4cfb2a18ccd906bd9543dc86fe9234f]
link TaskDialog to ExtensionCrawler--><path d="M326.171,136.327 C294.329,166.938 249.654,209.885 218.926,239.425 " fill="none" id="TaskDialog-&gt;ExtensionCrawler" style="stroke: #A80036; stroke-width: 1.0;"/><polygon fill="#A80036" points="215.249,242.959,224.5096,239.6061,218.8538,239.4941,218.9658,233.8384,215.249,242.959" style="stroke: #A80036; stroke-width: 1.0;"/><text fill="#000000" font-family="sans-serif" font-size="13" lengthAdjust="spacingAndGlyphs" textLength="28" x="291" y="182.4951">uses</text><!--MD5=[b92b3d71b19e2e64d9de8ff9a95924df]
link TaskDialog to CustomExtension--><path d="M459.003,128.89 C489.326,143.489 519.577,164.473 537,194 C562.071,236.488 552.66,258.218 537,305 C527.954,332.025 510.573,357.892 493.125,379.079 " fill="none" id="TaskDialog-&gt;CustomExtension" style="stroke: #A80036; stroke-width: 1.0;"/><polygon fill="#A80036" points="489.868,382.98,498.7062,378.6342,493.0722,379.1416,492.5647,373.5075,489.868,382.98" style="stroke: #A80036; stroke-width: 1.0;"/><text fill="#000000" font-family="sans-serif" font-size="13" lengthAdjust="spacingAndGlyphs" textLength="53" x="553" y="279.4951">executes</text><text fill="#000000" font-family="sans-serif" font-size="13" lengthAdjust="spacingAndGlyphs" textLength="7" x="467.0775" y="128.3088">1</text><text fill="#000000" font-family="sans-serif" font-size="13" lengthAdjust="spacingAndGlyphs" textLength="7" x="489.3846" y="372.1623">n</text><!--MD5=[ed77ba833c1322f1328e54dd56f4bafe]
link CustomExtension to Extension--><path d="M442,481.078 C442,501.736 442,525.694 442,545.782 " fill="none" id="CustomExtension-&gt;Extension" style="stroke: #A80036; stroke-width: 1.0;"/><polygon fill="#A80036" points="442,558.9822,446,552.9822,442,546.9822,438,552.9822,442,558.9822" style="stroke: #A80036; stroke-width: 1.0;"/><text fill="#000000" font-family="sans-serif" font-size="13" lengthAdjust="spacingAndGlyphs" textLength="49" x="443" y="525.4951">contains</text><text fill="#000000" font-family="sans-serif" font-size="13" lengthAdjust="spacingAndGlyphs" textLength="7" x="434.5516" y="501.9403">1</text><text fill="#000000" font-family="sans-serif" font-size="13" lengthAdjust="spacingAndGlyphs" textLength="22" x="417.5938" y="547.9983">0..1</text><!--MD5=[149da1678256d11ada1cfad657fd38c2]
@startuml
package "IvyLee: Main" <<Cloud>> {
 class TaskDialog {
  - tasks: List<IvyLeeTask>
  - -
  # execute(extensionId: String): void
 }
}
package "IvyLee: ExtensionAPI" <<Node>> {
annotation Extension
Extension : ~ displayName: String
Extension : - -
class CustomExtension implements TaskExtension {
custom fields
- -
custom methods
==
 + execute(IvyLeeTask): void
}
interface TaskExtension {
 - -
 + {abstract} execute(IvyLeeTask): void
}
class ExtensionCrawler {
 - -
 + searchExtensions(): List<? implements TaskExtension>
}
  ExtensionCrawler - -> CustomExtension: finds
  TaskDialog - -> ExtensionCrawler: uses
  TaskDialog "1" - -> "n" CustomExtension: executes
  CustomExtension "1" - -* "0..1" Extension: contains
}
@enduml

PlantUML version 1.2020.09(Sun May 10 12:51:06 CEST 2020)
(GPL source distribution)
Java Runtime: OpenJDK Runtime Environment
JVM: OpenJDK 64-Bit Server VM
Java Version: 11.0.8+10-b944.31
Operating System: Windows 10
Default Encoding: Cp1252
Language: de
Country: DE
--></g></svg>