<?xml version="1.0" encoding="UTF-8" standalone="no"?><svg xmlns="http://www.w3.org/2000/svg" xmlns:xlink="http://www.w3.org/1999/xlink" contentScriptType="application/ecmascript" contentStyleType="text/css" height="711px" preserveAspectRatio="none" style="width:733px;height:711px;" version="1.1" viewBox="0 0 733 711" width="733px" zoomAndPan="magnify"><defs><filter height="300%" id="f1b45cvf6o5sza" width="300%" x="-1" y="-1"><feGaussianBlur result="blurOut" stdDeviation="2.0"/><feColorMatrix in="blurOut" result="blurOut2" type="matrix" values="0 0 0 0 0 0 0 0 0 0 0 0 0 0 0 0 0 0 .4 0"/><feOffset dx="4.0" dy="4.0" in="blurOut2" result="blurOut3"/><feBlend in="SourceGraphic" in2="blurOut3" mode="normal"/></filter></defs><g><!--MD5=[2fdd392fa9d5943dda2926af1a31737f]
cluster class ExtensionAPI (class diagram)--><rect fill="#FFFFFF" filter="url(#f1b45cvf6o5sza)" height="676" style="stroke: #000000; stroke-width: 1.5;" width="700" x="22" y="24"/><path d="M274,25 L274,34.6094 L264,44.6094 L22,44.6094 " fill="none" style="stroke: #000000; stroke-width: 1.5;"/><text fill="#000000" font-family="sans-serif" font-size="14" font-weight="bold" lengthAdjust="spacingAndGlyphs" textLength="242" x="25" y="39.5332">class ExtensionAPI (class diagram)</text><!--MD5=[c9bc0bd209fa76f4781d211ece10fa6b]
cluster IvyLee: Main--><path d="M400.2261,77.8801 C403.6782,71.7518 409.7233,69.9509 413.8728,77.1668 C417.9046,68.8927 426.408,69.6454 430.8522,76.7104 C435.4865,69.2879 441.6105,69.9648 446.2616,76.692 C450.6915,69.3424 456.4581,69.4013 461.5141,76.0078 C465.4609,67.1996 473.9613,67.231 479.1308,74.683 C483.3096,66.4551 491.033,66.4071 495.7188,74.1565 C500.0437,67.1498 504.9043,67.2023 510.1671,73.107 C516.8736,65.6459 522.8402,66.6805 526.6551,75.9557 C531.4629,68.0016 536.4486,68.1662 541.7878,75.4271 C546.8386,67.0698 553.309,67.7304 558.7915,74.956 C564.2524,69.0809 568.8453,70.4574 572.4249,77.0185 C581.6898,68.8514 591.4554,69.5778 595,83 C596.4208,82.1821 597.0775,82.7766 597.4089,84.1809 C605.8465,88.058 605.5863,95.4474 597.6492,99.5799 C605.2283,104.0998 607.9731,112.0817 598.4345,117.3577 C605.4659,121.7768 604.7215,128.081 598.241,132.3254 C605.3612,137.3612 604.7802,145.2956 597.5725,149.7827 C605.8104,154.7453 605.7374,162.5522 596.572,166.4714 C603.4687,176.3327 601.983,186.4523 588,188 C588.4015,187.6099 588.8476,187.6663 589.0304,188.235 C584.7083,195.7495 579.0903,196.786 572.6952,190.7303 C568.6989,197.9432 563.8986,199.1816 558.4838,192.145 C553.165,199.6802 547.8659,201.6851 541.1282,193.7354 C537.3223,201.4719 531.0348,201.3751 526.8586,194.087 C522.8807,202.3318 516.3101,204.3028 509.6146,197.1256 C504.5163,204.2771 498.4742,205.2388 493.4984,196.9973 C488.8932,205.733 482.5184,205.8826 477.2888,197.5917 C472.2635,204.5481 466.1838,203.2837 462.0984,196.5489 C457.4602,202.8606 450.6124,202.266 447.2287,195.1587 C440.5716,201.0142 435.1766,200.885 431.707,191.8387 C427.4945,198.867 419.2482,200.2214 414.7059,192.2115 C402.1491,197.9729 393.6766,196.1294 391,181 C392.3834,181.6451 392.7638,182.4136 391.6989,183.6938 C384.5755,178.1766 384.4043,172.1015 391.5187,166.4356 C384.7295,163.0247 382.9324,155.4644 390.0185,150.7282 C380.8306,147.693 379.0217,140.2999 386.0249,133.5094 C379.1633,126.6804 380.8281,120.5217 389.4347,116.8607 C382.5055,111.0305 382.1983,104.4887 391.5925,100.8596 C380.7867,90.523 385.2759,80.2719 398,76 C399.6391,75.61 400.3986,76.1252 400.2261,77.8801 " fill="#FFFFFF" style="stroke: #000000; stroke-width: 1.5;"/><text fill="#000000" font-family="sans-serif" font-size="14" font-weight="bold" lengthAdjust="spacingAndGlyphs" textLength="88" x="449" y="95.5332">IvyLee: Main</text><!--MD5=[a008808372d8c02ae91a3cbe41765227]
cluster IvyLee: ExtensionAPI--><polygon fill="#FFFFFF" filter="url(#f1b45cvf6o5sza)" points="46,246,198,246,205,269.6094,597,269.6094,597,676,46,676,46,246" style="stroke: #000000; stroke-width: 1.5;"/><line style="stroke: #000000; stroke-width: 1.5;" x1="46" x2="205" y1="269.6094" y2="269.6094"/><text fill="#000000" font-family="sans-serif" font-size="14" font-weight="bold" lengthAdjust="spacingAndGlyphs" textLength="146" x="50" y="262.5332">IvyLee: ExtensionAPI</text><!--MD5=[b12afbf026500f01f4ad096dd4785fa0]
class TaskDialog--><rect fill="#FEFECE" filter="url(#f1b45cvf6o5sza)" height="75.6719" id="TaskDialog" style="stroke: #A80036; stroke-width: 1.5;" width="188" x="399" y="104"/><ellipse cx="457.25" cy="120" fill="#ADD1B2" rx="11" ry="11" style="stroke: #A80036; stroke-width: 1.0;"/><path d="M459.25,116.5 Q459.4531,116 459.6875,115.75 Q459.9219,115.5 460.1875,115.5 Q460.6563,115.5 460.9531,115.7813 Q461.25,116.0625 461.25,116.7188 L461.25,118.2813 Q461.25,118.9375 460.9688,119.2188 Q460.6875,119.5 460.25,119.5 Q459.8594,119.5 459.6094,119.3281 Q459.3594,119.1563 459.25,118.7031 Q459.2031,118.3906 459.0313,118.2188 Q458.7188,117.8906 458.1563,117.7031 Q457.5938,117.5 457.0313,117.5 Q456.3281,117.5 455.7344,117.7813 Q455.1563,118.0625 454.7031,118.6875 Q454.25,119.3125 454.25,120.1719 L454.25,121.0938 Q454.25,122.125 455.0938,122.8125 Q455.9375,123.5 457.4375,123.5 Q458.3281,123.5 458.9531,123.2969 Q459.3125,123.1875 459.7188,122.8281 Q459.9844,122.625 460.125,122.5625 Q460.2656,122.5 460.4375,122.5 Q460.7656,122.5 461,122.7656 Q461.25,123.0156 461.25,123.375 Q461.25,123.7188 460.9063,124.125 Q460.4063,124.7188 459.6094,125.0469 Q458.5625,125.5 457.2813,125.5 Q455.7813,125.5 454.5781,124.9063 Q453.6094,124.4375 452.9219,123.4219 Q452.25,122.4063 452.25,121.2031 L452.25,120.1094 Q452.25,118.8594 452.8438,117.7656 Q453.4531,116.6719 454.5,116.0938 Q455.5625,115.5 456.75,115.5 Q457.4688,115.5 458.0938,115.75 Q458.7188,116 459.25,116.5 Z "/><text fill="#000000" font-family="sans-serif" font-size="12" lengthAdjust="spacingAndGlyphs" textLength="63" x="477.75" y="124.9102">TaskDialog</text><line style="stroke: #A80036; stroke-width: 1.5;" x1="400" x2="586" y1="136" y2="136"/><rect fill="none" height="6" style="stroke: #C82930; stroke-width: 1.0;" width="6" x="407" y="144"/><text fill="#000000" font-family="sans-serif" font-size="11" lengthAdjust="spacingAndGlyphs" textLength="116" x="419" y="151.4189">tasks: List&lt;IvyLeeTask&gt;</text><line style="stroke: #A80036; stroke-width: 1.0;" x1="400" x2="586" y1="157.8359" y2="157.8359"/><polygon fill="#FFFF44" points="410,163.8359,414,167.8359,410,171.8359,406,167.8359" style="stroke: #B38D22; stroke-width: 1.0;"/><text fill="#000000" font-family="sans-serif" font-size="11" lengthAdjust="spacingAndGlyphs" textLength="162" x="419" y="173.2549">execute(extensionId: String): void</text><!--MD5=[b2aea1118518b698ec374f389bc4ef24]
class Extension--><rect fill="#FEFECE" filter="url(#f1b45cvf6o5sza)" height="61.8359" id="Extension" style="stroke: #A80036; stroke-width: 1.5;" width="121" x="442.5" y="598"/><ellipse cx="473.25" cy="614" fill="#E3664A" rx="11" ry="11" style="stroke: #A80036; stroke-width: 1.0;"/><path d="M474.75,611 L474.75,610.5469 Q474.75,609.8438 474.2813,609.4219 Q473.8125,609 473.0938,609 Q472.5,609 471.9844,609.4063 Q471.4688,609.7969 471.2188,610.4219 Q470.75,611.5313 470.75,612.6406 L470.75,615.1875 Q470.75,617.125 471.5781,618.25 Q472.1094,619 473.0781,619 Q473.5938,619 474.0313,618.8281 Q474.4688,618.6406 474.7031,618.3281 Q474.9375,618 475.1406,618 Q475.4063,618 475.5781,618.1875 Q475.75,618.375 475.75,618.6406 Q475.75,619.0469 475.2188,619.4375 Q474.4531,620 473.125,620 Q472.1094,620 471.4531,619.5156 Q470.5938,618.8906 470.1719,617.6719 Q469.75,616.4531 469.75,615.25 L469.75,612.6094 Q469.75,610.6875 470.6406,609.3438 Q471.5469,608 473.0469,608 Q473.7188,608 474.3125,608.2813 Q474.9063,608.5625 475.3281,609.2656 Q475.75,609.9688 475.75,610.8281 L475.75,615 Q475.75,615.1406 475.75,615.4531 Q475.75,615.7031 475.625,615.8594 Q475.5,616 475.2188,616 L474.75,616 L474.75,615.9531 Q474.3594,616 474.1875,616 Q473.2031,616 472.4688,615.2969 Q471.75,614.5938 471.75,613.6406 Q471.75,612.625 472.5469,611.8594 Q473.3594,611.0938 474.75,611 Z M474.75,612 Q473.7813,612.0938 473.2656,612.3906 Q472.75,612.6875 472.75,613.6719 Q472.75,614.2188 473.1719,614.6094 Q473.6094,615 474.2969,615 Q474.4375,615 474.75,614.9688 L474.75,612 Z "/><text fill="#000000" font-family="sans-serif" font-size="12" lengthAdjust="spacingAndGlyphs" textLength="54" x="490.75" y="618.9102">Extension</text><line style="stroke: #A80036; stroke-width: 1.5;" x1="443.5" x2="562.5" y1="630" y2="630"/><polygon fill="none" points="453.5,637,449.5,643,457.5,643" style="stroke: #1963A0; stroke-width: 1.0;"/><text fill="#000000" font-family="sans-serif" font-size="11" lengthAdjust="spacingAndGlyphs" textLength="95" x="462.5" y="645.4189">displayName: String</text><line style="stroke: #A80036; stroke-width: 1.0;" x1="443.5" x2="562.5" y1="651.8359" y2="651.8359"/><!--MD5=[b004e133133e870caa6314ae3e3cc580]
class CustomExtension--><rect fill="#FEFECE" filter="url(#f1b45cvf6o5sza)" height="97.5078" id="CustomExtension" style="stroke: #A80036; stroke-width: 1.5;" width="154" x="426" y="422"/><ellipse cx="451.8" cy="438" fill="#ADD1B2" rx="11" ry="11" style="stroke: #A80036; stroke-width: 1.0;"/><path d="M453.8,434.5 Q454.0031,434 454.2375,433.75 Q454.4719,433.5 454.7375,433.5 Q455.2063,433.5 455.5031,433.7813 Q455.8,434.0625 455.8,434.7188 L455.8,436.2813 Q455.8,436.9375 455.5188,437.2188 Q455.2375,437.5 454.8,437.5 Q454.4094,437.5 454.1594,437.3281 Q453.9094,437.1563 453.8,436.7031 Q453.7531,436.3906 453.5813,436.2188 Q453.2688,435.8906 452.7063,435.7031 Q452.1438,435.5 451.5813,435.5 Q450.8781,435.5 450.2844,435.7813 Q449.7063,436.0625 449.2531,436.6875 Q448.8,437.3125 448.8,438.1719 L448.8,439.0938 Q448.8,440.125 449.6438,440.8125 Q450.4875,441.5 451.9875,441.5 Q452.8781,441.5 453.5031,441.2969 Q453.8625,441.1875 454.2688,440.8281 Q454.5344,440.625 454.675,440.5625 Q454.8156,440.5 454.9875,440.5 Q455.3156,440.5 455.55,440.7656 Q455.8,441.0156 455.8,441.375 Q455.8,441.7188 455.4563,442.125 Q454.9563,442.7188 454.1594,443.0469 Q453.1125,443.5 451.8313,443.5 Q450.3313,443.5 449.1281,442.9063 Q448.1594,442.4375 447.4719,441.4219 Q446.8,440.4063 446.8,439.2031 L446.8,438.1094 Q446.8,436.8594 447.3938,435.7656 Q448.0031,434.6719 449.05,434.0938 Q450.1125,433.5 451.3,433.5 Q452.0188,433.5 452.6438,433.75 Q453.2688,434 453.8,434.5 Z "/><text fill="#000000" font-family="sans-serif" font-size="12" lengthAdjust="spacingAndGlyphs" textLength="98" x="468.2" y="442.9102">CustomExtension</text><line style="stroke: #A80036; stroke-width: 1.5;" x1="427" x2="579" y1="454" y2="454"/><text fill="#000000" font-family="sans-serif" font-size="11" lengthAdjust="spacingAndGlyphs" textLength="64" x="432" y="469.4189">custom fields</text><line style="stroke: #A80036; stroke-width: 1.0;" x1="427" x2="579" y1="475.8359" y2="475.8359"/><text fill="#000000" font-family="sans-serif" font-size="11" lengthAdjust="spacingAndGlyphs" textLength="79" x="432" y="491.2549">custom methods</text><line style="stroke: #A80036; stroke-width: 1.0;" x1="427" x2="579" y1="497.6719" y2="497.6719"/><line style="stroke: #A80036; stroke-width: 1.0;" x1="427" x2="579" y1="499.6719" y2="499.6719"/><ellipse cx="437" cy="508.6719" fill="#84BE84" rx="3" ry="3" style="stroke: #038048; stroke-width: 1.0;"/><text fill="#000000" font-family="sans-serif" font-size="11" lengthAdjust="spacingAndGlyphs" textLength="128" x="446" y="513.0908">execute(IvyLeeTask): void</text><!--MD5=[faa49435fa93234aa04eac98da65b5b4]
class TaskExtension--><rect fill="#FEFECE" filter="url(#f1b45cvf6o5sza)" height="61.8359" id="TaskExtension" style="stroke: #A80036; stroke-width: 1.5;" width="155" x="425.5" y="282"/><ellipse cx="459.4" cy="298" fill="#B4A7E5" rx="11" ry="11" style="stroke: #A80036; stroke-width: 1.0;"/><path d="M460.4,295 L460.4,301 L462.4,301 L462.8844,301 L463.4,301.625 L463.4,302 L463.4,302.375 L462.8844,303 L462.4,303 L456.4,303 L455.9156,303 L455.4,302.375 L455.4,302 L455.4,301.625 L455.9156,301 L456.4,301 L458.4,301 L458.4,295 L456.4,295 L455.9156,295 L455.4,294.375 L455.4,294 L455.4,293.625 L455.9156,293 L456.4,293 L462.4,293 L462.8844,293 L463.4,293.625 L463.4,294 L463.4,294.375 L462.8844,295 L462.4,295 L460.4,295 Z "/><text fill="#000000" font-family="sans-serif" font-size="12" font-style="italic" lengthAdjust="spacingAndGlyphs" textLength="81" x="477.6" y="302.9102">TaskExtension</text><line style="stroke: #A80036; stroke-width: 1.5;" x1="426.5" x2="579.5" y1="314" y2="314"/><line style="stroke: #A80036; stroke-width: 1.0;" x1="426.5" x2="579.5" y1="322" y2="322"/><ellipse cx="436.5" cy="333" fill="#84BE84" rx="3" ry="3" style="stroke: #038048; stroke-width: 1.0;"/><text fill="#000000" font-family="sans-serif" font-size="11" font-style="italic" lengthAdjust="spacingAndGlyphs" textLength="129" x="445.5" y="337.4189">execute(IvyLeeTask): void</text><!--MD5=[b9515c53f92dbbe79e7016f5139b49f5]
class ExtensionCrawler--><rect fill="#FEFECE" filter="url(#f1b45cvf6o5sza)" height="61.8359" id="ExtensionCrawler" style="stroke: #A80036; stroke-width: 1.5;" width="291" x="62.5" y="282"/><ellipse cx="155.25" cy="298" fill="#ADD1B2" rx="11" ry="11" style="stroke: #A80036; stroke-width: 1.0;"/><path d="M157.25,294.5 Q157.4531,294 157.6875,293.75 Q157.9219,293.5 158.1875,293.5 Q158.6563,293.5 158.9531,293.7813 Q159.25,294.0625 159.25,294.7188 L159.25,296.2813 Q159.25,296.9375 158.9688,297.2188 Q158.6875,297.5 158.25,297.5 Q157.8594,297.5 157.6094,297.3281 Q157.3594,297.1563 157.25,296.7031 Q157.2031,296.3906 157.0313,296.2188 Q156.7188,295.8906 156.1563,295.7031 Q155.5938,295.5 155.0313,295.5 Q154.3281,295.5 153.7344,295.7813 Q153.1563,296.0625 152.7031,296.6875 Q152.25,297.3125 152.25,298.1719 L152.25,299.0938 Q152.25,300.125 153.0938,300.8125 Q153.9375,301.5 155.4375,301.5 Q156.3281,301.5 156.9531,301.2969 Q157.3125,301.1875 157.7188,300.8281 Q157.9844,300.625 158.125,300.5625 Q158.2656,300.5 158.4375,300.5 Q158.7656,300.5 159,300.7656 Q159.25,301.0156 159.25,301.375 Q159.25,301.7188 158.9063,302.125 Q158.4063,302.7188 157.6094,303.0469 Q156.5625,303.5 155.2813,303.5 Q153.7813,303.5 152.5781,302.9063 Q151.6094,302.4375 150.9219,301.4219 Q150.25,300.4063 150.25,299.2031 L150.25,298.1094 Q150.25,296.8594 150.8438,295.7656 Q151.4531,294.6719 152.5,294.0938 Q153.5625,293.5 154.75,293.5 Q155.4688,293.5 156.0938,293.75 Q156.7188,294 157.25,294.5 Z "/><text fill="#000000" font-family="sans-serif" font-size="12" lengthAdjust="spacingAndGlyphs" textLength="97" x="175.75" y="302.9102">ExtensionCrawler</text><line style="stroke: #A80036; stroke-width: 1.5;" x1="63.5" x2="352.5" y1="314" y2="314"/><line style="stroke: #A80036; stroke-width: 1.0;" x1="63.5" x2="352.5" y1="322" y2="322"/><ellipse cx="73.5" cy="333" fill="#84BE84" rx="3" ry="3" style="stroke: #038048; stroke-width: 1.0;"/><text fill="#000000" font-family="sans-serif" font-size="11" lengthAdjust="spacingAndGlyphs" textLength="265" x="82.5" y="337.4189">searchExtensions(): List&lt;? implements TaskExtension&gt;</text><!--MD5=[ae8839b41f4c1231e23530b06883217d]
reverse link TaskExtension to CustomExtension--><path d="M503,364.362 C503,382.822 503,403.653 503,421.909 " fill="none" id="TaskExtension&lt;-CustomExtension" style="stroke: #A80036; stroke-width: 1.0; stroke-dasharray: 7.0,7.0;"/><polygon fill="none" points="496,364.078,503,344.078,510,364.078,496,364.078" style="stroke: #A80036; stroke-width: 1.0;"/><!--MD5=[2ce31c852288784b6339a10df03ef211]
link ExtensionCrawler to CustomExtension--><path d="M269.502,346.523 C313.539,369.81 373.292,401.408 421.327,426.81 " fill="none" id="ExtensionCrawler-CustomExtension" style="stroke: #A80036; stroke-width: 1.0;"/><polygon fill="#A80036" points="425.938,429.248,419.8515,421.5049,421.5179,426.9108,416.112,428.5771,425.938,429.248" style="stroke: #A80036; stroke-width: 1.0;"/><path d="M267.4294,349.9513 L278.2411,346.6186 M271.1689,342.8791 L274.5015,353.6908 " fill="none" style="stroke: #A80036; stroke-width: 1.0;"/><text fill="#000000" font-family="sans-serif" font-size="13" lengthAdjust="spacingAndGlyphs" textLength="53" x="356" y="388.4951">searches</text><!--MD5=[8ba02e5dd9c722a945cc9b0f492f4662]
link ExtensionCrawler to TaskExtension--><path d="M358.977,313 C379.943,313 400.816,313 419.899,313 " fill="none" id="ExtensionCrawler-TaskExtension" style="stroke: #A80036; stroke-width: 1.0; stroke-dasharray: 7.0,7.0;"/><polygon fill="#A80036" points="425.233,313,416.233,309,420.233,313,416.233,317,425.233,313" style="stroke: #A80036; stroke-width: 1.0;"/><path d="M358.772,317 L366.772,309 M358.772,309 L366.772,317 " fill="none" style="stroke: #A80036; stroke-width: 1.0;"/><text fill="#000000" font-family="sans-serif" font-size="13" lengthAdjust="spacingAndGlyphs" textLength="35" x="372" y="306.4951">«use»</text><!--MD5=[c4cfb2a18ccd906bd9543dc86fe9234f]
link TaskDialog to ExtensionCrawler--><path d="M430.456,180.088 C380.613,209.644 311.474,250.642 263.56,279.054 " fill="none" id="TaskDialog-&gt;ExtensionCrawler" style="stroke: #A80036; stroke-width: 1.0; stroke-dasharray: 7.0,7.0;"/><polygon fill="#A80036" points="258.991,281.763,268.7725,280.6128,263.2916,279.2126,264.6919,273.7318,258.991,281.763" style="stroke: #A80036; stroke-width: 1.0;"/><text fill="#000000" font-family="sans-serif" font-size="13" lengthAdjust="spacingAndGlyphs" textLength="35" x="377" y="226.4951">«use»</text><!--MD5=[b92b3d71b19e2e64d9de8ff9a95924df]
link TaskDialog to CustomExtension--><path d="M554.464,183.434 C571.851,198.317 588.59,216.797 598,238 C617.11,281.061 612.954,299.325 598,344 C588.954,371.025 571.573,396.892 554.125,418.079 " fill="none" id="TaskDialog-CustomExtension" style="stroke: #A80036; stroke-width: 1.0;"/><polygon fill="#A80036" points="550.868,421.98,559.7062,417.6342,554.0722,418.1416,553.5647,412.5075,550.868,421.98" style="stroke: #A80036; stroke-width: 1.0;"/><path d="M551.7721,186.3967 L563.0424,185.407 M556.9124,180.2667 L557.9021,191.537 " fill="none" style="stroke: #A80036; stroke-width: 1.0;"/><text fill="#000000" font-family="sans-serif" font-size="13" lengthAdjust="spacingAndGlyphs" textLength="53" x="611" y="318.4951">executes</text><text fill="#000000" font-family="sans-serif" font-size="13" lengthAdjust="spacingAndGlyphs" textLength="7" x="552.4566" y="201.3089">1</text><text fill="#000000" font-family="sans-serif" font-size="13" lengthAdjust="spacingAndGlyphs" textLength="7" x="550.3846" y="411.1623">n</text><!--MD5=[ed77ba833c1322f1328e54dd56f4bafe]
link CustomExtension to Extension--><path d="M503,520.078 C503,540.736 503,564.694 503,584.782 " fill="none" id="CustomExtension-&gt;Extension" style="stroke: #A80036; stroke-width: 1.0;"/><polygon fill="#FFFFFF" points="503,597.982,507,591.982,503,585.982,499,591.982,503,597.982" style="stroke: #A80036; stroke-width: 1.0;"/><text fill="#000000" font-family="sans-serif" font-size="13" lengthAdjust="spacingAndGlyphs" textLength="49" x="504" y="564.4951">contains</text><text fill="#000000" font-family="sans-serif" font-size="13" lengthAdjust="spacingAndGlyphs" textLength="7" x="495.5516" y="540.9403">1</text><text fill="#000000" font-family="sans-serif" font-size="13" lengthAdjust="spacingAndGlyphs" textLength="22" x="478.5938" y="586.9983">0..1</text><!--MD5=[4a0b14261f1b070d6ac5279501734a57]
@startuml
package "class ExtensionAPI (class diagram)" <<frame>>{
  package "IvyLee: Main" <<Cloud>> {
   class TaskDialog {
    - tasks: List<IvyLeeTask>
    - -
    # execute(extensionId: String): void
   }
  }
  package "IvyLee: ExtensionAPI" <<Package>> {
  annotation Extension
  Extension : ~ displayName: String
  Extension : - -
  class CustomExtension implements TaskExtension {
  custom fields
  - -
  custom methods
  ==
   + execute(IvyLeeTask): void
  }
  interface TaskExtension {
   - -
   + {abstract} execute(IvyLeeTask): void
  }
  class ExtensionCrawler {
   - -
   + searchExtensions(): List<? implements TaskExtension>
  }
    ExtensionCrawler x- -> CustomExtension: searches
    ExtensionCrawler x.> TaskExtension: <<use>>
    TaskDialog ..> ExtensionCrawler: <<use>>
    TaskDialog "1" x- - -> "n" CustomExtension: executes
    CustomExtension "1" - -o "0..1" Extension: contains
  }
}
@enduml

PlantUML version 1.2020.09(Sun May 10 12:51:06 CEST 2020)
(GPL source distribution)
Java Runtime: OpenJDK Runtime Environment
JVM: OpenJDK 64-Bit Server VM
Java Version: 11.0.8+10-b944.31
Operating System: Windows 10
Default Encoding: Cp1252
Language: de
Country: DE
--></g></svg>