<?xml version="1.0" encoding="UTF-8" standalone="no"?><svg xmlns="http://www.w3.org/2000/svg" xmlns:xlink="http://www.w3.org/1999/xlink" contentScriptType="application/ecmascript" contentStyleType="text/css" height="745px" preserveAspectRatio="none" style="width:795px;height:745px;" version="1.1" viewBox="0 0 795 745" width="795px" zoomAndPan="magnify"><defs><filter height="300%" id="f1ov7y9kf7jjmj" width="300%" x="-1" y="-1"><feGaussianBlur result="blurOut" stdDeviation="2.0"/><feColorMatrix in="blurOut" result="blurOut2" type="matrix" values="0 0 0 0 0 0 0 0 0 0 0 0 0 0 0 0 0 0 .4 0"/><feOffset dx="4.0" dy="4.0" in="blurOut2" result="blurOut3"/><feBlend in="SourceGraphic" in2="blurOut3" mode="normal"/></filter></defs><g><ellipse cx="127.5" cy="50.0957" fill="#000000" filter="url(#f1ov7y9kf7jjmj)" rx="10" ry="10" style="stroke: none; stroke-width: 1.0;"/><rect fill="#FEFECE" filter="url(#f1ov7y9kf7jjmj)" height="35.0938" rx="12.5" ry="12.5" style="stroke: #A80036; stroke-width: 1.5;" width="119" x="68" y="80.0957"/><text fill="#000000" font-family="sans-serif" font-size="12" lengthAdjust="spacingAndGlyphs" textLength="99" x="78" y="102.5527">right click task cell</text><rect fill="#FEFECE" filter="url(#f1ov7y9kf7jjmj)" height="35.0938" rx="12.5" ry="12.5" style="stroke: #A80036; stroke-width: 1.5;" width="147" x="54" y="364.4707"/><text fill="#000000" font-family="sans-serif" font-size="12" lengthAdjust="spacingAndGlyphs" textLength="127" x="64" y="386.9277">input (modify) task data</text><polygon fill="#FEFECE" filter="url(#f1ov7y9kf7jjmj)" points="100.5,419.5645,154.5,419.5645,166.5,431.5645,154.5,443.5645,100.5,443.5645,88.5,431.5645,100.5,419.5645" style="stroke: #A80036; stroke-width: 1.5;"/><text fill="#000000" font-family="sans-serif" font-size="11" lengthAdjust="spacingAndGlyphs" textLength="54" x="100.5" y="436.0654">click button</text><text fill="#000000" font-family="sans-serif" font-size="11" lengthAdjust="spacingAndGlyphs" textLength="32" x="56.5" y="429.1475">cancel</text><text fill="#000000" font-family="sans-serif" font-size="11" lengthAdjust="spacingAndGlyphs" textLength="11" x="166.5" y="429.1475">ok</text><ellipse cx="34" cy="473.5645" fill="#FFFFFF" filter="url(#f1ov7y9kf7jjmj)" rx="10" ry="10" style="stroke: #000000; stroke-width: 1.5;"/><line style="stroke: #000000; stroke-width: 2.5;" x1="27.8128" x2="40.1872" y1="467.3773" y2="479.7516"/><line style="stroke: #000000; stroke-width: 2.5;" x1="40.1872" x2="27.8128" y1="467.3773" y2="479.7516"/><line style="stroke: #000000; stroke-width: 2.0;" x1="15" x2="15" y1="12.4551" y2="733.8457"/><polygon fill="#FEFECE" filter="url(#f1ov7y9kf7jjmj)" points="366.75,135.1895,432.75,135.1895,444.75,147.1895,432.75,159.1895,366.75,159.1895,354.75,147.1895,366.75,135.1895" style="stroke: #A80036; stroke-width: 1.5;"/><text fill="#000000" font-family="sans-serif" font-size="11" lengthAdjust="spacingAndGlyphs" textLength="66" x="366.75" y="151.6904">task present?</text><text fill="#000000" font-family="sans-serif" font-size="11" lengthAdjust="spacingAndGlyphs" textLength="19" x="335.75" y="144.7725">true</text><text fill="#000000" font-family="sans-serif" font-size="11" lengthAdjust="spacingAndGlyphs" textLength="12" x="444.75" y="144.7725">no</text><rect fill="#FEFECE" filter="url(#f1ov7y9kf7jjmj)" height="35.0938" rx="12.5" ry="12.5" style="stroke: #A80036; stroke-width: 1.5;" width="181" x="210" y="169.1895"/><text fill="#000000" font-family="sans-serif" font-size="12" lengthAdjust="spacingAndGlyphs" textLength="161" x="220" y="191.6465">load task instance (task data)</text><rect fill="#FEFECE" filter="url(#f1ov7y9kf7jjmj)" height="35.0938" rx="12.5" ry="12.5" style="stroke: #A80036; stroke-width: 1.5;" width="176" x="411" y="169.1895"/><text fill="#000000" font-family="sans-serif" font-size="12" lengthAdjust="spacingAndGlyphs" textLength="156" x="421" y="191.6465">initialize empty task instance</text><polygon fill="#FEFECE" filter="url(#f1ov7y9kf7jjmj)" points="399.75,210.2832,411.75,222.2832,399.75,234.2832,387.75,222.2832,399.75,210.2832" style="stroke: #A80036; stroke-width: 1.5;"/><rect fill="#FEFECE" filter="url(#f1ov7y9kf7jjmj)" height="35.0938" rx="12.5" ry="12.5" style="stroke: #A80036; stroke-width: 1.5;" width="127" x="336.25" y="254.2832"/><text fill="#000000" font-family="sans-serif" font-size="12" lengthAdjust="spacingAndGlyphs" textLength="107" x="346.25" y="276.7402">initialize task dialog</text><rect fill="#FEFECE" filter="url(#f1ov7y9kf7jjmj)" height="35.0938" rx="12.5" ry="12.5" style="stroke: #A80036; stroke-width: 1.5;" width="134" x="332.75" y="309.377"/><text fill="#000000" font-family="sans-serif" font-size="12" lengthAdjust="spacingAndGlyphs" textLength="114" x="342.75" y="331.834">load task data to GUI</text><rect fill="#FEFECE" filter="url(#f1ov7y9kf7jjmj)" height="35.0938" rx="12.5" ry="12.5" style="stroke: #A80036; stroke-width: 1.5;" width="122" x="433" y="463.5645"/><text fill="#000000" font-family="sans-serif" font-size="12" lengthAdjust="spacingAndGlyphs" textLength="102" x="443" y="486.0215">save task instance</text><rect fill="#000000" filter="url(#f1ov7y9kf7jjmj)" height="6" rx="2.5" ry="2.5" style="stroke: #000000; stroke-width: 1.0;" width="258.5" x="340.5" y="518.6582"/><rect fill="#FEFECE" filter="url(#f1ov7y9kf7jjmj)" height="35.0938" rx="12.5" ry="12.5" style="stroke: #A80036; stroke-width: 1.5;" width="87" x="354.5" y="544.6582"/><text fill="#000000" font-family="sans-serif" font-size="12" lengthAdjust="spacingAndGlyphs" textLength="67" x="364.5" y="567.1152">close dialog</text><rect fill="#FEFECE" filter="url(#f1ov7y9kf7jjmj)" height="35.0938" rx="12.5" ry="12.5" style="stroke: #A80036; stroke-width: 1.5;" width="83" x="356.5" y="614.752"/><text fill="#000000" font-family="sans-serif" font-size="12" lengthAdjust="spacingAndGlyphs" textLength="63" x="366.5" y="637.209">refresh GUI</text><rect fill="#000000" filter="url(#f1ov7y9kf7jjmj)" height="6" rx="2.5" ry="2.5" style="stroke: #000000; stroke-width: 1.0;" width="258.5" x="340.5" y="669.8457"/><ellipse cx="494" cy="706.8457" fill="#FFFFFF" filter="url(#f1ov7y9kf7jjmj)" rx="11" ry="11" style="stroke: #000000; stroke-width: 1.0;"/><ellipse cx="494" cy="706.8457" fill="#000000" rx="6" ry="6" style="stroke: #7F7F7F; stroke-width: 1.0;"/><line style="stroke: #000000; stroke-width: 2.0;" x1="205" x2="205" y1="12.4551" y2="733.8457"/><rect fill="#FEFECE" filter="url(#f1ov7y9kf7jjmj)" height="35.0938" rx="12.5" ry="12.5" style="stroke: #A80036; stroke-width: 1.5;" width="164" x="608" y="579.7051"/><text fill="#000000" font-family="sans-serif" font-size="12" lengthAdjust="spacingAndGlyphs" textLength="144" x="618" y="602.1621">synchronize tasks to cloud</text><line style="stroke: #000000; stroke-width: 2.0;" x1="603" x2="603" y1="12.4551" y2="733.8457"/><line style="stroke: #000000; stroke-width: 2.0;" x1="776" x2="776" y1="12.4551" y2="733.8457"/><line style="stroke: #A80036; stroke-width: 1.5;" x1="127.5" x2="127.5" y1="60.0957" y2="80.0957"/><polygon fill="#A80036" points="123.5,70.0957,127.5,80.0957,131.5,70.0957,127.5,74.0957" style="stroke: #A80036; stroke-width: 1.0;"/><line style="stroke: #A80036; stroke-width: 1.5;" x1="88.5" x2="34" y1="431.5645" y2="431.5645"/><line style="stroke: #A80036; stroke-width: 1.5;" x1="34" x2="34" y1="431.5645" y2="463.5645"/><polygon fill="#A80036" points="30,453.5645,34,463.5645,38,453.5645,34,457.5645" style="stroke: #A80036; stroke-width: 1.0;"/><line style="stroke: #A80036; stroke-width: 1.5;" x1="127.5" x2="127.5" y1="399.5645" y2="419.5645"/><polygon fill="#A80036" points="123.5,409.5645,127.5,419.5645,131.5,409.5645,127.5,413.5645" style="stroke: #A80036; stroke-width: 1.0;"/><line style="stroke: #A80036; stroke-width: 1.5;" x1="354.75" x2="300.5" y1="147.1895" y2="147.1895"/><line style="stroke: #A80036; stroke-width: 1.5;" x1="300.5" x2="300.5" y1="147.1895" y2="169.1895"/><polygon fill="#A80036" points="296.5,159.1895,300.5,169.1895,304.5,159.1895,300.5,163.1895" style="stroke: #A80036; stroke-width: 1.0;"/><line style="stroke: #A80036; stroke-width: 1.5;" x1="444.75" x2="499" y1="147.1895" y2="147.1895"/><line style="stroke: #A80036; stroke-width: 1.5;" x1="499" x2="499" y1="147.1895" y2="169.1895"/><polygon fill="#A80036" points="495,159.1895,499,169.1895,503,159.1895,499,163.1895" style="stroke: #A80036; stroke-width: 1.0;"/><line style="stroke: #A80036; stroke-width: 1.5;" x1="300.5" x2="300.5" y1="204.2832" y2="222.2832"/><line style="stroke: #A80036; stroke-width: 1.5;" x1="300.5" x2="387.75" y1="222.2832" y2="222.2832"/><polygon fill="#A80036" points="377.75,218.2832,387.75,222.2832,377.75,226.2832,381.75,222.2832" style="stroke: #A80036; stroke-width: 1.0;"/><line style="stroke: #A80036; stroke-width: 1.5;" x1="499" x2="499" y1="204.2832" y2="222.2832"/><line style="stroke: #A80036; stroke-width: 1.5;" x1="499" x2="411.75" y1="222.2832" y2="222.2832"/><polygon fill="#A80036" points="421.75,218.2832,411.75,222.2832,421.75,226.2832,417.75,222.2832" style="stroke: #A80036; stroke-width: 1.0;"/><line style="stroke: #A80036; stroke-width: 1.5;" x1="399.75" x2="399.75" y1="234.2832" y2="254.2832"/><polygon fill="#A80036" points="395.75,244.2832,399.75,254.2832,403.75,244.2832,399.75,248.2832" style="stroke: #A80036; stroke-width: 1.0;"/><line style="stroke: #A80036; stroke-width: 1.5;" x1="399.75" x2="399.75" y1="289.377" y2="309.377"/><polygon fill="#A80036" points="395.75,299.377,399.75,309.377,403.75,299.377,399.75,303.377" style="stroke: #A80036; stroke-width: 1.0;"/><line style="stroke: #A80036; stroke-width: 1.5;" x1="398" x2="398" y1="579.752" y2="614.752"/><polygon fill="#A80036" points="394,604.752,398,614.752,402,604.752,398,608.752" style="stroke: #A80036; stroke-width: 1.0;"/><line style="stroke: #A80036; stroke-width: 1.5;" x1="398" x2="398" y1="524.6582" y2="544.6582"/><polygon fill="#A80036" points="394,534.6582,398,544.6582,402,534.6582,398,538.6582" style="stroke: #A80036; stroke-width: 1.0;"/><line style="stroke: #A80036; stroke-width: 1.5;" x1="398" x2="398" y1="649.8457" y2="669.8457"/><polygon fill="#A80036" points="394,659.8457,398,669.8457,402,659.8457,398,663.8457" style="stroke: #A80036; stroke-width: 1.0;"/><line style="stroke: #A80036; stroke-width: 1.5;" x1="494" x2="494" y1="498.6582" y2="518.6582"/><polygon fill="#A80036" points="490,508.6582,494,518.6582,498,508.6582,494,512.6582" style="stroke: #A80036; stroke-width: 1.0;"/><line style="stroke: #A80036; stroke-width: 1.5;" x1="494" x2="494" y1="675.8457" y2="695.8457"/><polygon fill="#A80036" points="490,685.8457,494,695.8457,498,685.8457,494,689.8457" style="stroke: #A80036; stroke-width: 1.0;"/><line style="stroke: #A80036; stroke-width: 1.5;" x1="127.5" x2="127.5" y1="115.1895" y2="120.1895"/><line style="stroke: #A80036; stroke-width: 1.5;" x1="127.5" x2="399.75" y1="120.1895" y2="120.1895"/><line style="stroke: #A80036; stroke-width: 1.5;" x1="399.75" x2="399.75" y1="120.1895" y2="135.1895"/><polygon fill="#A80036" points="395.75,125.1895,399.75,135.1895,403.75,125.1895,399.75,129.1895" style="stroke: #A80036; stroke-width: 1.0;"/><line style="stroke: #A80036; stroke-width: 1.5;" x1="399.75" x2="399.75" y1="344.4707" y2="349.4707"/><line style="stroke: #A80036; stroke-width: 1.5;" x1="399.75" x2="127.5" y1="349.4707" y2="349.4707"/><line style="stroke: #A80036; stroke-width: 1.5;" x1="127.5" x2="127.5" y1="349.4707" y2="364.4707"/><polygon fill="#A80036" points="123.5,354.4707,127.5,364.4707,131.5,354.4707,127.5,358.4707" style="stroke: #A80036; stroke-width: 1.0;"/><line style="stroke: #A80036; stroke-width: 1.5;" x1="551.5" x2="551.5" y1="524.6582" y2="528.6582"/><line style="stroke: #A80036; stroke-width: 1.5;" x1="551.5" x2="690" y1="528.6582" y2="528.6582"/><line style="stroke: #A80036; stroke-width: 1.5;" x1="690" x2="690" y1="528.6582" y2="579.7051"/><polygon fill="#A80036" points="686,569.7051,690,579.7051,694,569.7051,690,573.7051" style="stroke: #A80036; stroke-width: 1.0;"/><line style="stroke: #A80036; stroke-width: 1.5;" x1="166.5" x2="494" y1="431.5645" y2="431.5645"/><line style="stroke: #A80036; stroke-width: 1.5;" x1="494" x2="494" y1="431.5645" y2="463.5645"/><polygon fill="#A80036" points="490,453.5645,494,463.5645,498,453.5645,494,457.5645" style="stroke: #A80036; stroke-width: 1.0;"/><text fill="#000000" font-family="sans-serif" font-size="18" lengthAdjust="spacingAndGlyphs" textLength="38" x="91" y="31.1406">User</text><text fill="#000000" font-family="sans-serif" font-size="18" lengthAdjust="spacingAndGlyphs" textLength="87" x="360.5" y="31.1406">Application</text><text fill="#000000" font-family="sans-serif" font-size="18" lengthAdjust="spacingAndGlyphs" textLength="105" x="637" y="31.1406">Google Drive</text><!--MD5=[77374d04890d9125070adb597c7c4238]
@startuml
|User|
start
:right click task cell;
|Application|
if (task present?) then (true)
  :load task instance (task data);
else (no)
  :initialize empty task instance;
endif
:initialize task dialog;
:load task data to GUI;
|User|
:input (modify) task data;
if(click button) then (cancel)
  |User|
  end
else (ok)
  |Application|
  :save task instance;
  fork
    |Application|
    :close dialog;
    :refresh GUI;
  fork again
    |Google Drive|
    :synchronize tasks to cloud;
    detach
  |Application|
  endfork
  stop
endif
|Google Drive|
@enduml

PlantUML version 1.2020.09(Sun May 10 12:51:06 CEST 2020)
(GPL source distribution)
Java Runtime: OpenJDK Runtime Environment
JVM: OpenJDK 64-Bit Server VM
Java Version: 11.0.8+10-b944.31
Operating System: Windows 10
Default Encoding: Cp1252
Language: de
Country: DE
--></g></svg>