<?xml version="1.0" encoding="UTF-8" standalone="no"?><svg xmlns="http://www.w3.org/2000/svg" xmlns:xlink="http://www.w3.org/1999/xlink" contentScriptType="application/ecmascript" contentStyleType="text/css" height="1018px" preserveAspectRatio="none" style="width:914px;height:1018px;" version="1.1" viewBox="0 0 914 1018" width="914px" zoomAndPan="magnify"><defs><filter height="300%" id="f1xc50rwtr20kh" width="300%" x="-1" y="-1"><feGaussianBlur result="blurOut" stdDeviation="2.0"/><feColorMatrix in="blurOut" result="blurOut2" type="matrix" values="0 0 0 0 0 0 0 0 0 0 0 0 0 0 0 0 0 0 .4 0"/><feOffset dx="4.0" dy="4.0" in="blurOut2" result="blurOut3"/><feBlend in="SourceGraphic" in2="blurOut3" mode="normal"/></filter></defs><g><ellipse cx="254.884" cy="105.5" fill="#000000" filter="url(#f1xc50rwtr20kh)" rx="10" ry="10" style="stroke: none; stroke-width: 1.0;"/><rect fill="#FEFECE" filter="url(#f1xc50rwtr20kh)" height="52.7031" rx="12.5" ry="12.5" style="stroke: #A80036; stroke-width: 1.5;" width="110" x="56.8838" y="932.5"/><line style="stroke: #A80036; stroke-width: 1.5;" x1="56.8838" x2="166.8838" y1="960.1094" y2="960.1094"/><text fill="#000000" font-family="sans-serif" font-size="14" lengthAdjust="spacingAndGlyphs" textLength="50" x="86.8838" y="952.0332">deletion</text><text fill="#000000" font-family="sans-serif" font-size="12" lengthAdjust="spacingAndGlyphs" textLength="90" x="61.8838" y="977.5664">exit / refresh GUI</text><rect fill="#FEFECE" filter="url(#f1xc50rwtr20kh)" height="97.9844" rx="12.5" ry="12.5" style="stroke: #A80036; stroke-width: 1.5;" width="150" x="539.884" y="910"/><line style="stroke: #A80036; stroke-width: 1.5;" x1="539.884" x2="689.884" y1="937.6094" y2="937.6094"/><text fill="#000000" font-family="sans-serif" font-size="14" lengthAdjust="spacingAndGlyphs" textLength="51" x="589.384" y="929.5332">creation</text><text fill="#000000" font-family="sans-serif" font-size="12" lengthAdjust="spacingAndGlyphs" textLength="130" x="544.884" y="955.0664">entry / show GUI screen</text><text fill="#000000" font-family="sans-serif" font-size="12" lengthAdjust="spacingAndGlyphs" textLength="120" x="544.884" y="970.1602">do / wait for user input</text><text fill="#000000" font-family="sans-serif" font-size="12" lengthAdjust="spacingAndGlyphs" textLength="106" x="544.884" y="985.2539">exit / save task data</text><text fill="#000000" font-family="sans-serif" font-size="12" lengthAdjust="spacingAndGlyphs" textLength="90" x="544.884" y="1000.3477">exit / refresh GUI</text><ellipse cx="815.884" cy="662" fill="none" filter="url(#f1xc50rwtr20kh)" rx="10" ry="10" style="stroke: #000000; stroke-width: 1.0;"/><ellipse cx="816.384" cy="662.5" fill="#000000" rx="6" ry="6" style="stroke: none; stroke-width: 1.0;"/><rect fill="#FEFECE" filter="url(#f1xc50rwtr20kh)" height="194.6094" rx="12.5" ry="12.5" style="stroke: #A80036; stroke-width: 1.5;" width="218" x="352.884" y="8"/><rect fill="#FFFFFF" height="161" rx="12.5" ry="12.5" style="stroke: #FFFFFF; stroke-width: 1.0;" width="212" x="355.884" y="38.6094"/><line style="stroke: #A80036; stroke-width: 1.5;" x1="352.884" x2="570.884" y1="35.6094" y2="35.6094"/><text fill="#000000" font-family="sans-serif" font-size="14" lengthAdjust="spacingAndGlyphs" textLength="37" x="443.384" y="27.5332">Setup</text><rect fill="#FEFECE" filter="url(#f1xc50rwtr20kh)" height="82.8906" rx="12.5" ry="12.5" style="stroke: #A80036; stroke-width: 1.5;" width="174" x="363.884" y="104.6094"/><line style="stroke: #A80036; stroke-width: 1.5;" x1="363.884" x2="537.884" y1="132.2188" y2="132.2188"/><text fill="#000000" font-family="sans-serif" font-size="14" lengthAdjust="spacingAndGlyphs" textLength="63" x="419.384" y="124.1426">user input</text><text fill="#000000" font-family="sans-serif" font-size="12" lengthAdjust="spacingAndGlyphs" textLength="128" x="368.884" y="149.6758">entry / open GUI screen</text><text fill="#000000" font-family="sans-serif" font-size="12" lengthAdjust="spacingAndGlyphs" textLength="120" x="368.884" y="164.7695">do / wait for user input</text><text fill="#000000" font-family="sans-serif" font-size="12" lengthAdjust="spacingAndGlyphs" textLength="154" x="368.884" y="179.8633">exit / save configuration data</text><ellipse cx="450.884" cy="58.6094" fill="#000000" filter="url(#f1xc50rwtr20kh)" rx="10" ry="10" style="stroke: none; stroke-width: 1.0;"/><!--MD5=[e0aa7c35c1ddb9567847115c7908c054]
link *start*Setup to aui--><path d="M450.884,68.7594 C450.884,76.3734 450.884,87.8297 450.884,99.5676 " fill="none" id="*start*Setup-&gt;aui" style="stroke: #A80036; stroke-width: 1.0;"/><polygon fill="#A80036" points="450.884,104.605,454.884,95.605,450.884,99.605,446.884,95.605,450.884,104.605" style="stroke: #A80036; stroke-width: 1.0;"/><rect fill="#FEFECE" filter="url(#f1xc50rwtr20kh)" height="194.6094" rx="12.5" ry="12.5" style="stroke: #A80036; stroke-width: 1.5;" width="206" x="254.884" y="281"/><rect fill="#FFFFFF" height="161" rx="12.5" ry="12.5" style="stroke: #FFFFFF; stroke-width: 1.0;" width="200" x="257.884" y="311.6094"/><line style="stroke: #A80036; stroke-width: 1.5;" x1="254.884" x2="460.884" y1="308.6094" y2="308.6094"/><text fill="#000000" font-family="sans-serif" font-size="14" lengthAdjust="spacingAndGlyphs" textLength="72" x="321.884" y="300.5332">Initialization</text><rect fill="#FEFECE" filter="url(#f1xc50rwtr20kh)" height="82.8906" rx="12.5" ry="12.5" style="stroke: #A80036; stroke-width: 1.5;" width="162" x="265.884" y="377.6094"/><line style="stroke: #A80036; stroke-width: 1.5;" x1="265.884" x2="427.884" y1="405.2188" y2="405.2188"/><text fill="#000000" font-family="sans-serif" font-size="14" lengthAdjust="spacingAndGlyphs" textLength="46" x="323.884" y="397.1426">loading</text><text fill="#000000" font-family="sans-serif" font-size="12" lengthAdjust="spacingAndGlyphs" textLength="142" x="270.884" y="422.6758">entry / download task data</text><text fill="#000000" font-family="sans-serif" font-size="12" lengthAdjust="spacingAndGlyphs" textLength="101" x="270.884" y="437.7695">do / read task data</text><text fill="#000000" font-family="sans-serif" font-size="12" lengthAdjust="spacingAndGlyphs" textLength="120" x="270.884" y="452.8633">exit / open GUI screen</text><ellipse cx="346.884" cy="331.6094" fill="#000000" filter="url(#f1xc50rwtr20kh)" rx="10" ry="10" style="stroke: none; stroke-width: 1.0;"/><!--MD5=[1f379fd109caa72c7b068eaf460e6cdc]
link *start*Initialization to load--><path d="M346.884,341.7594 C346.884,349.3734 346.884,360.8297 346.884,372.5676 " fill="none" id="*start*Initialization-&gt;load" style="stroke: #A80036; stroke-width: 1.0;"/><polygon fill="#A80036" points="346.884,377.605,350.884,368.605,346.884,372.605,342.884,368.605,346.884,377.605" style="stroke: #A80036; stroke-width: 1.0;"/><rect fill="#FEFECE" filter="url(#f1xc50rwtr20kh)" height="215.6094" rx="12.5" ry="12.5" style="stroke: #A80036; stroke-width: 1.5;" width="575" x="70.3838" y="554"/><rect fill="#FFFFFF" height="182" rx="12.5" ry="12.5" style="stroke: #FFFFFF; stroke-width: 1.0;" width="569" x="73.3838" y="584.6094"/><line style="stroke: #A80036; stroke-width: 1.5;" x1="70.3838" x2="645.3838" y1="581.6094" y2="581.6094"/><text fill="#000000" font-family="sans-serif" font-size="14" lengthAdjust="spacingAndGlyphs" textLength="167" x="274.3838" y="573.5332">task overview (task status)</text><ellipse cx="91.3838" cy="621.1094" fill="#000000" filter="url(#f1xc50rwtr20kh)" rx="10" ry="10" style="stroke: none; stroke-width: 1.0;"/><rect fill="#FEFECE" filter="url(#f1xc50rwtr20kh)" height="52.7031" rx="12.5" ry="12.5" style="stroke: #A80036; stroke-width: 1.5;" width="110" x="119.3838" y="594.6094"/><line style="stroke: #A80036; stroke-width: 1.5;" x1="119.3838" x2="229.3838" y1="622.2188" y2="622.2188"/><text fill="#000000" font-family="sans-serif" font-size="14" lengthAdjust="spacingAndGlyphs" textLength="57" x="145.8838" y="614.1426">UNDONE</text><text fill="#000000" font-family="sans-serif" font-size="12" lengthAdjust="spacingAndGlyphs" textLength="90" x="124.3838" y="639.6758">exit / refresh GUI</text><rect fill="#FEFECE" filter="url(#f1xc50rwtr20kh)" height="52.7031" rx="12.5" ry="12.5" style="stroke: #A80036; stroke-width: 1.5;" width="110" x="417.3838" y="594.6094"/><line style="stroke: #A80036; stroke-width: 1.5;" x1="417.3838" x2="527.3838" y1="622.2188" y2="622.2188"/><text fill="#000000" font-family="sans-serif" font-size="14" lengthAdjust="spacingAndGlyphs" textLength="63" x="440.8838" y="614.1426">IN_WORK</text><text fill="#000000" font-family="sans-serif" font-size="12" lengthAdjust="spacingAndGlyphs" textLength="90" x="422.3838" y="639.6758">exit / refresh GUI</text><rect fill="#FEFECE" filter="url(#f1xc50rwtr20kh)" height="52.7031" rx="12.5" ry="12.5" style="stroke: #A80036; stroke-width: 1.5;" width="110" x="267.3838" y="701.6094"/><line style="stroke: #A80036; stroke-width: 1.5;" x1="267.3838" x2="377.3838" y1="729.2188" y2="729.2188"/><text fill="#000000" font-family="sans-serif" font-size="14" lengthAdjust="spacingAndGlyphs" textLength="39" x="302.8838" y="721.1426">DONE</text><text fill="#000000" font-family="sans-serif" font-size="12" lengthAdjust="spacingAndGlyphs" textLength="90" x="272.3838" y="746.6758">exit / refresh GUI</text><!--MD5=[2dceafb3713fce1093d226421db43049]
link *start*tasks to UNDONE--><path d="M101.4346,621.1094 C105.5754,621.1094 109.7162,621.1094 113.857,621.1094 " fill="none" id="*start*tasks-&gt;UNDONE" style="stroke: #A80036; stroke-width: 1.0;"/><polygon fill="#A80036" points="119.102,621.1094,110.102,617.1094,114.102,621.1094,110.102,625.1094,119.102,621.1094" style="stroke: #A80036; stroke-width: 1.0;"/><!--MD5=[de64164c98cff14b7b8a8a7bd7a54c2f]
link UNDONE to IN_WORK--><path d="M229.3888,621.1094 C281.1968,621.1094 358.6308,621.1094 412.0978,621.1094 " fill="none" id="UNDONE-&gt;IN_WORK" style="stroke: #A80036; stroke-width: 1.0;"/><polygon fill="#A80036" points="417.1948,621.1094,408.1948,617.1094,412.1948,621.1094,408.1948,625.1094,417.1948,621.1094" style="stroke: #A80036; stroke-width: 1.0;"/><text fill="#000000" font-family="sans-serif" font-size="13" lengthAdjust="spacingAndGlyphs" textLength="168" x="239.3838" y="614.6045">[user input] / do / refresh GUI</text><!--MD5=[999cdc6346779f394413c997b7824688]
link IN_WORK to DONE--><path d="M456.3958,647.6244 C447.7888,659.765 436.2938,673.7473 423.3838,683.6094 C411.1158,692.981 396.5218,700.7723 382.2948,707.0465 " fill="none" id="IN_WORK-&gt;DONE" style="stroke: #A80036; stroke-width: 1.0;"/><polygon fill="#A80036" points="377.4878,709.1162,387.336,709.2313,382.0803,707.139,384.1725,701.8833,377.4878,709.1162" style="stroke: #A80036; stroke-width: 1.0;"/><text fill="#000000" font-family="sans-serif" font-size="13" lengthAdjust="spacingAndGlyphs" textLength="168" x="443.3838" y="680.1045">[user input] / do / refresh GUI</text><!--MD5=[327531ad328875be6e79336de54cbb04]
link DONE to UNDONE--><path d="M280.3528,701.5407 C271.3448,695.8042 261.9608,689.6296 253.3838,683.6094 C238.8148,673.3836 223.2598,661.4978 209.8398,650.9164 " fill="none" id="DONE-&gt;UNDONE" style="stroke: #A80036; stroke-width: 1.0;"/><polygon fill="#A80036" points="205.7468,647.6774,210.3226,656.3987,209.6678,650.7799,215.2866,650.1251,205.7468,647.6774" style="stroke: #A80036; stroke-width: 1.0;"/><text fill="#000000" font-family="sans-serif" font-size="13" lengthAdjust="spacingAndGlyphs" textLength="168" x="254.3838" y="680.1045">[user input] / do / refresh GUI</text><!--MD5=[927f07f7a187749b6c90a9e4e71dac58]
link *start to Setup--><path d="M265.149,105.5 C281.128,105.5 313.672,105.5 347.77,105.5 " fill="none" id="*start-&gt;Setup" style="stroke: #A80036; stroke-width: 1.0;"/><polygon fill="#A80036" points="352.81,105.5,343.81,101.5,347.81,105.5,343.81,109.5,352.81,105.5" style="stroke: #A80036; stroke-width: 1.0;"/><text fill="#000000" font-family="sans-serif" font-size="13" lengthAdjust="spacingAndGlyphs" textLength="51" x="283.384" y="98.9951">[first run]</text><!--MD5=[500d41e684d1029e89f38d1c65b16bc3]
link *start to Initialization--><path d="M258.194,115.21 C267.607,139.977 295.389,213.073 319.241,275.827 " fill="none" id="*start-&gt;Initialization" style="stroke: #A80036; stroke-width: 1.0;"/><polygon fill="#A80036" points="321.096,280.71,321.6365,270.876,319.3191,276.0364,314.1587,273.719,321.096,280.71" style="stroke: #A80036; stroke-width: 1.0;"/><text fill="#000000" font-family="sans-serif" font-size="13" lengthAdjust="spacingAndGlyphs" textLength="32" x="310.884" y="247.4951">[else]</text><!--MD5=[95a819c4df9c0be25bd22d62d6cd3992]
link Setup to Initialization--><path d="M424.778,203.189 C415.7,226.845 405.96,252.225 396.799,276.095 " fill="none" id="Setup-&gt;Initialization" style="stroke: #A80036; stroke-width: 1.0;"/><polygon fill="#A80036" points="394.975,280.848,401.9338,273.8784,396.7663,276.1799,394.4648,271.0124,394.975,280.848" style="stroke: #A80036; stroke-width: 1.0;"/><text fill="#000000" font-family="sans-serif" font-size="13" lengthAdjust="spacingAndGlyphs" textLength="158" x="414.884" y="247.4951">[user input] / do / save data</text><!--MD5=[ca1f250ec70bc9a21998b6a265e68a4c]
link Initialization to tasks--><path d="M357.884,476.376 C357.884,499.687 357.884,524.782 357.884,548.729 " fill="none" id="Initialization-&gt;tasks" style="stroke: #A80036; stroke-width: 1.0;"/><polygon fill="#A80036" points="357.884,553.821,361.884,544.821,357.884,548.821,353.884,544.821,357.884,553.821" style="stroke: #A80036; stroke-width: 1.0;"/><text fill="#000000" font-family="sans-serif" font-size="13" lengthAdjust="spacingAndGlyphs" textLength="183" x="358.884" y="520.4951">[task data read] / do / open GUI</text><!--MD5=[ab2fce114114c51ad8bda77e3ef468f0]
link tasks to deletion--><path d="M268.376,770.336 C221.322,826.764 167.188,891.68 136.506,928.4737 " fill="none" id="tasks-&gt;deletion" style="stroke: #A80036; stroke-width: 1.0;"/><polygon fill="#A80036" points="133.247,932.3819,142.0831,928.0317,136.4493,928.5419,135.9391,922.9081,133.247,932.3819" style="stroke: #A80036; stroke-width: 1.0;"/><text fill="#000000" font-family="sans-serif" font-size="13" lengthAdjust="spacingAndGlyphs" textLength="167" x="217.884" y="845.4951">[user input] / do / delete task</text><!--MD5=[c1b6e9930515c7577196a9fd825a9a97]
link deletion to tasks--><path d="M68.4778,932.4073 C32.1207,907.55 -10.3868,868.215 12.8838,831 C27.1818,808.134 45.5845,788.299 66.4361,771.108 " fill="none" id="deletion-&gt;tasks" style="stroke: #A80036; stroke-width: 1.0;"/><polygon fill="#A80036" points="70.3576,767.929,60.8474,770.4894,66.4735,771.0777,65.8852,776.7038,70.3576,767.929" style="stroke: #A80036; stroke-width: 1.0;"/><text fill="#000000" font-family="sans-serif" font-size="13" lengthAdjust="spacingAndGlyphs" textLength="182" x="13.8838" y="845.4951">[task deleted] / do / refresh GUI</text><!--MD5=[3d119ef42e07df734565d7f3acbdb685]
link tasks to creation--><path d="M438.9,770.074 C459.792,796.395 482.666,824.143 504.884,849 C522.184,868.356 542.084,888.618 560.161,906.349 " fill="none" id="tasks-&gt;creation" style="stroke: #A80036; stroke-width: 1.0;"/><polygon fill="#A80036" points="563.75,909.8605,560.1144,900.7072,560.1761,906.3637,554.5196,906.4255,563.75,909.8605" style="stroke: #A80036; stroke-width: 1.0;"/><text fill="#000000" font-family="sans-serif" font-size="13" lengthAdjust="spacingAndGlyphs" textLength="202" x="505.884" y="845.4951">[user input] / do / show GUI screen</text><!--MD5=[a0a8374bff8ca6c720f3c7cbb8f86518]
link creation to tasks--><path d="M686.587,909.7868 C711.822,886.684 730.09,858.178 712.884,831 C696.266,804.751 674.318,782.524 649.465,763.719 " fill="none" id="creation-&gt;tasks" style="stroke: #A80036; stroke-width: 1.0;"/><polygon fill="#A80036" points="645.451,760.73,650.281,769.3132,649.4614,763.716,655.0586,762.8965,645.451,760.73" style="stroke: #A80036; stroke-width: 1.0;"/><text fill="#000000" font-family="sans-serif" font-size="13" lengthAdjust="spacingAndGlyphs" textLength="183" x="719.884" y="845.4951">[task created] / do / refresh GUI</text><!--MD5=[bd8250af7dab1e3479b97c82c39212cb]
link tasks to *end--><path d="M645.667,662 C713.016,662 773.089,662 800.365,662 " fill="none" id="tasks-&gt;*end" style="stroke: #A80036; stroke-width: 1.0;"/><polygon fill="#A80036" points="805.679,662,796.679,658,800.679,662,796.679,666,805.679,662" style="stroke: #A80036; stroke-width: 1.0;"/><text fill="#000000" font-family="sans-serif" font-size="13" lengthAdjust="spacingAndGlyphs" textLength="124" x="663.634" y="655.4951">[user input] / do / exit</text><!--MD5=[5c8265ed564ebab3f544c8f41878c037]
@startuml
State Setup {
State "user input" as aui
 aui: entry / open GUI screen
 aui: do / wait for user input
 aui: exit / save configuration data
 [*] - -> aui
}
State Initialization {
State "loading" as load
 [*] - -> load
 load: entry / download task data
 load: do / read task data
 load: exit / open GUI screen
}
State "task overview (task status)" as tasks{
  [*] -> UNDONE
  UNDONE: exit / refresh GUI
  UNDONE -> IN_WORK: [user input] / do / refresh GUI
  IN_WORK: exit / refresh GUI
  IN_WORK - -> DONE: [user input] / do / refresh GUI
  DONE: exit / refresh GUI
  DONE - -> UNDONE: [user input] / do / refresh GUI
}
[*] -> Setup : [first run]
[*] - -> Initialization : [else]
Setup - -> Initialization: [user input] / do / save data
Initialization - -> tasks: [task data read] / do / open GUI
tasks - - -> deletion : [user input] / do / delete task
deletion - - -> tasks : [task deleted] / do / refresh GUI
deletion: exit / refresh GUI
tasks - - -> creation : [user input] / do / show GUI screen
creation - - -> tasks : [task created] / do / refresh GUI
creation: entry / show GUI screen
creation: do / wait for user input
creation: exit / save task data
creation: exit / refresh GUI
tasks -> [*]: [user input] / do / exit
@enduml

PlantUML version 1.2020.09(Sun May 10 12:51:06 CEST 2020)
(GPL source distribution)
Java Runtime: OpenJDK Runtime Environment
JVM: OpenJDK 64-Bit Server VM
Java Version: 11.0.8+10-b944.34
Operating System: Windows 10
Default Encoding: Cp1252
Language: de
Country: DE
--></g></svg>